<mxfile host="app.diagrams.net" modified="2023-03-21T10:13:42.660Z" agent="5.0 (Windows NT 10.0; Win64; x64) AppleWebKit/537.36 (KHTML, like Gecko) Chrome/111.0.0.0 Safari/537.36 Edg/111.0.1661.44" etag="mkn9pv2vgialJrb7s8Dd" version="21.0.8" type="github">
  <diagram name="Page-1" id="eLa6vcpmxpIugEdQMYGk">
    <mxGraphModel dx="1617" dy="798" grid="1" gridSize="10" guides="1" tooltips="1" connect="1" arrows="1" fold="1" page="1" pageScale="1" pageWidth="827" pageHeight="1169" math="0" shadow="0">
      <root>
        <mxCell id="0" />
        <mxCell id="1" parent="0" />
        <mxCell id="XMKDpLihNk2aly6VVdPa-1" value="SNMP Exporter (Agent)" style="rounded=0;whiteSpace=wrap;html=1;" vertex="1" parent="1">
          <mxGeometry x="110" y="320" width="120" height="60" as="geometry" />
        </mxCell>
        <mxCell id="XMKDpLihNk2aly6VVdPa-12" value="" style="edgeStyle=orthogonalEdgeStyle;rounded=0;orthogonalLoop=1;jettySize=auto;html=1;" edge="1" parent="1" source="XMKDpLihNk2aly6VVdPa-2" target="XMKDpLihNk2aly6VVdPa-1">
          <mxGeometry relative="1" as="geometry" />
        </mxCell>
        <mxCell id="XMKDpLihNk2aly6VVdPa-2" value="Prometheus Server&lt;br&gt;&lt;br&gt;[HTTP server]&lt;br&gt;[Time SÃ©rie DB]&lt;br&gt;[Retrival]" style="rounded=0;whiteSpace=wrap;html=1;" vertex="1" parent="1">
          <mxGeometry x="360" y="300" width="210" height="100" as="geometry" />
        </mxCell>
        <mxCell id="XMKDpLihNk2aly6VVdPa-3" value="" style="endArrow=none;html=1;rounded=0;entryX=0;entryY=0.5;entryDx=0;entryDy=0;" edge="1" parent="1" target="XMKDpLihNk2aly6VVdPa-2">
          <mxGeometry width="50" height="50" relative="1" as="geometry">
            <mxPoint x="230" y="350" as="sourcePoint" />
            <mxPoint x="350" y="330" as="targetPoint" />
            <Array as="points" />
          </mxGeometry>
        </mxCell>
        <mxCell id="XMKDpLihNk2aly6VVdPa-11" value="PULL Metrics" style="edgeLabel;html=1;align=center;verticalAlign=middle;resizable=0;points=[];" vertex="1" connectable="0" parent="XMKDpLihNk2aly6VVdPa-3">
          <mxGeometry x="0.475" y="1" relative="1" as="geometry">
            <mxPoint as="offset" />
          </mxGeometry>
        </mxCell>
        <mxCell id="XMKDpLihNk2aly6VVdPa-4" value="Grafana&lt;br&gt;(Data visualisation)" style="rounded=0;whiteSpace=wrap;html=1;" vertex="1" parent="1">
          <mxGeometry x="600" y="320" width="120" height="60" as="geometry" />
        </mxCell>
        <mxCell id="XMKDpLihNk2aly6VVdPa-5" value="" style="endArrow=none;html=1;rounded=0;entryX=0;entryY=0.5;entryDx=0;entryDy=0;exitX=1;exitY=0.5;exitDx=0;exitDy=0;" edge="1" parent="1" source="XMKDpLihNk2aly6VVdPa-2" target="XMKDpLihNk2aly6VVdPa-4">
          <mxGeometry width="50" height="50" relative="1" as="geometry">
            <mxPoint x="530" y="280" as="sourcePoint" />
            <mxPoint x="580" y="230" as="targetPoint" />
            <Array as="points" />
          </mxGeometry>
        </mxCell>
        <mxCell id="XMKDpLihNk2aly6VVdPa-6" value="Targets" style="ellipse;whiteSpace=wrap;html=1;aspect=fixed;" vertex="1" parent="1">
          <mxGeometry x="70" y="440" width="80" height="80" as="geometry" />
        </mxCell>
        <mxCell id="XMKDpLihNk2aly6VVdPa-7" value="" style="endArrow=classic;html=1;rounded=0;entryX=1;entryY=0;entryDx=0;entryDy=0;" edge="1" parent="1" target="XMKDpLihNk2aly6VVdPa-6">
          <mxGeometry width="50" height="50" relative="1" as="geometry">
            <mxPoint x="170" y="380" as="sourcePoint" />
            <mxPoint x="130" y="430" as="targetPoint" />
          </mxGeometry>
        </mxCell>
        <mxCell id="XMKDpLihNk2aly6VVdPa-13" value="SNMPv3/SNMPv2" style="edgeLabel;html=1;align=center;verticalAlign=middle;resizable=0;points=[];" vertex="1" connectable="0" parent="XMKDpLihNk2aly6VVdPa-7">
          <mxGeometry x="-0.3137" y="1" relative="1" as="geometry">
            <mxPoint as="offset" />
          </mxGeometry>
        </mxCell>
        <mxCell id="XMKDpLihNk2aly6VVdPa-8" value="Prometheus WEB UI&amp;nbsp;" style="rounded=0;whiteSpace=wrap;html=1;" vertex="1" parent="1">
          <mxGeometry x="600" y="260" width="120" height="60" as="geometry" />
        </mxCell>
        <mxCell id="XMKDpLihNk2aly6VVdPa-9" value="Targets" style="ellipse;whiteSpace=wrap;html=1;aspect=fixed;" vertex="1" parent="1">
          <mxGeometry x="80" y="450" width="80" height="80" as="geometry" />
        </mxCell>
        <mxCell id="XMKDpLihNk2aly6VVdPa-10" value="Targets&lt;br&gt;[SNMP Agent]&lt;br&gt;[MIB DB]" style="ellipse;whiteSpace=wrap;html=1;aspect=fixed;" vertex="1" parent="1">
          <mxGeometry x="90" y="460" width="80" height="80" as="geometry" />
        </mxCell>
      </root>
    </mxGraphModel>
  </diagram>
</mxfile>
